<?xml version="1.0" encoding="UTF-8" standalone="no"?>
<svg
   xmlns:dc="http://purl.org/dc/elements/1.1/"
   xmlns:cc="http://creativecommons.org/ns#"
   xmlns:rdf="http://www.w3.org/1999/02/22-rdf-syntax-ns#"
   xmlns:svg="http://www.w3.org/2000/svg"
   xmlns="http://www.w3.org/2000/svg"
   xmlns:sodipodi="http://sodipodi.sourceforge.net/DTD/sodipodi-0.dtd"
   xmlns:inkscape="http://www.inkscape.org/namespaces/inkscape"
   width="128"
   height="128"
   viewBox="0 0 33.866668 33.866668"
   version="1.1"
   id="svg286"
   inkscape:version="1.0.1 (0767f8302a, 2020-10-17)"
   sodipodi:docname="leaf-icon.svg"
   inkscape:export-filename="/home/mark/code/leaf-browser/icon128-off.png"
   inkscape:export-xdpi="96"
   inkscape:export-ydpi="96">
  <defs
     id="defs280" />
  <sodipodi:namedview
     id="base"
     pagecolor="#ffffff"
     bordercolor="#666666"
     borderopacity="1.0"
     inkscape:pageopacity="0.0"
     inkscape:pageshadow="2"
     inkscape:zoom="3.959798"
     inkscape:cx="101.33636"
     inkscape:cy="69.454796"
     inkscape:document-units="px"
     inkscape:current-layer="layer5"
     inkscape:document-rotation="0"
     showgrid="false"
     inkscape:window-width="2022"
     inkscape:window-height="1253"
     inkscape:window-x="191"
     inkscape:window-y="108"
     inkscape:window-maximized="0"
     units="px" />
  <metadata
     id="metadata283">
    <rdf:RDF>
      <cc:Work
         rdf:about="">
        <dc:format>image/svg+xml</dc:format>
        <dc:type
           rdf:resource="http://purl.org/dc/dcmitype/StillImage" />
        <dc:title></dc:title>
      </cc:Work>
    </rdf:RDF>
  </metadata>
  <g
     inkscape:groupmode="layer"
     id="layer5"
     inkscape:label="Layer 2"
     style="display:inline"
     transform="translate(-326.44918,-101.49808)">
    <path
       id="rect295"
       style="fill:none;stroke-width:0.992054"
       d="M 0,0 V 2902.6777 H 3870.2363 V 0 Z m 1748.2168,382.16992 c 9.7385,-0.11953 31.9559,15.82892 39.3496,26.44727 9.0999,13.06873 13.6685,32.42299 40.4531,60.86133 26.7846,28.43833 90.6918,-45.2458 104.6367,-50.67188 13.9449,-5.42612 72.2464,-38.00359 92.42,-32.2168 20.1736,5.78676 33.8302,2.30885 29.2676,14.77539 0,0 -2.964,7.30263 16.7402,-3.26757 19.7042,-10.57021 69.4481,13.81617 75.6914,33.19336 0,0 13.2714,10.87926 34.1289,58.92968 20.8575,48.05038 5.7192,153.50724 -5.7246,170.95313 -11.4437,17.44588 -36.2214,78.69669 -51.9004,105.24023 -15.6789,26.54351 -40.0188,58.5186 -43.2012,64.17969 -3.1823,5.66109 -6.5819,27.66153 3.2403,36.86914 9.8219,9.20761 42.5189,-1.69181 55.3398,-18.28125 0,0 105.0874,-63.12836 125.3984,-67.45312 20.311,-4.32473 123.4895,-27.59476 144.6504,-18.69336 0,0 25.1643,3.39725 22.0352,13.33007 0,0 18.4409,-0.41645 21.7031,11.24415 3.2621,11.66059 15.0655,6.56847 13.0977,33.89453 -1.9677,27.32602 3.235,44.9105 -24.2618,94.80468 -27.4968,49.89423 -73.5617,105.39081 -110.0624,133.70511 -36.5008,28.3143 -91.5748,64.6228 -110.0997,73.0078 -18.5249,8.3851 -68.522,28.8132 -88.0234,44.7793 -19.5014,15.9661 -71.4455,54.2458 -82.5586,58.8887 -11.1131,4.6428 -21.6739,10.0468 -20.8809,12.0527 0.7931,2.0059 12.2211,6.9342 20.7227,5.5957 8.5016,-1.3386 7.0975,2.1274 14.9649,-0.3223 7.8673,-2.4494 68.8144,-20.8415 95.1074,-21.8828 26.2929,-1.0413 108.029,-19.1835 156.0781,-10.0098 48.049,9.1738 57.5031,11.504 71.1973,11.504 13.6941,0 59.6558,14.8601 66.1308,39.1679 0,0 3.2348,8.9868 -2.3418,14.3535 0,0 -5.4579,2.6182 0.1582,4.586 5.6163,1.9678 13.3077,3.5097 10.2481,15.7636 -3.0595,12.254 1.1386,30.0672 -22.8926,52.9766 -24.0312,22.9095 -24.5994,25.2561 -50.9375,39.5742 -26.338,14.3182 -49.6846,15.2187 -57.834,29.4121 0,0 -43.8285,23.8656 -70.2851,31.7559 -26.4567,7.8903 -31.8481,5.9016 -71.9844,21.752 -40.1362,15.8505 -112.3577,22.077 -158.3965,41.7753 -46.0388,19.6984 -67.0666,13.838 -104.1484,31.1504 -37.0819,17.3125 -86.6851,40.2596 -108.2207,54.8555 -21.5356,14.5959 -45.7077,43.6287 -59.8184,69.7422 -14.1107,26.1136 17.6826,26.4646 37.4531,29.2871 19.7705,2.8225 65.5194,-10.3945 109.711,0.055 44.1917,10.4492 44.3606,12.7221 60.3515,28.3066 0,0 3.4967,2.2131 -0.3867,13.7071 0,0 -0.873,1.9372 4.3164,6.0585 5.1894,4.1214 -7.7024,28.2102 -15.707,35.2325 -8.0046,7.0223 -37.452,37.3979 -64.8848,50.7675 -27.4329,13.3698 -30.6294,6.3686 -39.2285,17.7833 0,0 -9.3831,4.1961 -24.6992,4.9804 -15.3161,0.7844 -49.472,4.2158 -55.5313,9.5215 -6.0594,5.3058 -38.6715,6.1279 -48.2812,6.9277 -9.6097,0.7998 -6.9315,7.6159 -13.2969,10.7618 -6.3654,3.1458 -45.1676,20.5157 -51.0723,27.2832 -5.9046,6.7675 -33.4737,16.6123 -45.3476,34.6933 0,0 -7.8613,3.5185 -20.1153,18.3731 -12.2538,14.8545 -73.7623,49.342 -91.0957,68.8554 0,0 -24.4998,8.0344 -36.8886,22.7715 -12.3889,14.7371 -45.2918,22.0709 -53.9942,35.9219 0,0 -14.4037,4.3217 -31.4101,22.4902 -17.0065,18.1686 -35.9688,47.0088 -61.7403,85.252 -25.7715,38.2432 -35.4537,48.1615 -36.875,58.1894 -1.4211,10.0278 -7.1645,9.8911 -13.7773,12.7129 -6.6128,2.8221 -8.0469,38.3321 -8.0469,38.3321 l -24.1347,1.6152 c 0,0 -5.1099,-33.0615 11.5683,-52.1484 16.6782,-19.087 40.0705,-35.172 55.3926,-64.8594 0,0 50.6253,-81.3449 56.2598,-87.9942 5.6345,-6.6493 12.7738,-19.9568 14.7187,-29.2441 1.945,-9.2873 30.1974,-97.8213 30.8145,-111.4727 0.617,-13.6512 30.9292,-101.7437 32.3164,-106.3886 1.3871,-4.6448 7.2542,-20.4827 9.248,-25.9121 1.9939,-5.4295 41.835,-143.2238 28.4981,-229.2657 -13.337,-86.0419 -31.1306,-124.6074 -63.6719,-184.7109 -32.5414,-60.1036 -36.0452,-70.619 -41.2402,-90.4277 -5.195,-19.8088 -2.5055,-51.6861 1.7871,-65.586 4.2926,-13.8998 13.4698,-16.1769 18.7343,-16.5586 5.2645,-0.3817 6.3931,-4.6964 12.4668,-9.4257 6.0737,-4.7294 39.4997,1.8215 60.7676,17.58 21.2679,15.7585 35.4524,24.3275 47.336,37.9629 11.8835,13.6354 24.8922,23.0071 33.5683,41.9492 8.6761,18.9422 43.9557,64.7711 48.1445,66.1114 4.1888,1.3403 39.1224,27.6511 47.9629,-8.9805 8.8405,-36.6316 -4.2441,-85.9817 -15.9863,-98.6543 -11.7423,-12.6726 -52.5017,-122.9678 -74.1348,-153.1309 -21.633,-30.163 -33.9589,-74.2898 -50.3242,-120.1679 -16.3653,-45.8782 -61.3211,-120.95225 -78.1601,-134.56448 -16.839,-13.61223 -24.8088,-41.22464 -20.2207,-60.98828 0,0 13.6412,-4.71596 9.6484,-26.68945 -3.9928,-21.97353 -26.0647,-76.63748 -21.7168,-87.8086 4.3479,-11.17111 -11.4215,-27.11537 20.3789,-45.98632 0,0 10.0337,-8.52041 12.4649,-12.6836 2.431,-4.16322 35.8844,-3.13051 48.6855,3.17578 12.801,6.3063 58.8503,36.73937 71.7969,52.66407 12.9466,15.92473 47.0024,103.20734 53.5488,111.65625 6.5464,8.4489 13.0299,34.69565 18.4199,37.83984 5.39,3.14423 20.137,24.97253 40.8535,50.39258 20.7166,25.42 52.4567,54.57567 61.0938,53.88281 8.6371,-0.69286 29.4601,0.47938 18.1172,-52.56641 -11.3429,-53.04574 -36.9353,-87.67358 -35.418,-111.75586 1.5173,-24.08231 -17.4166,-56.48978 -15.9473,-76.58398 1.4693,-20.09416 -8.154,-46.0167 -2.7304,-74.17773 5.4235,-28.16108 9.045,-97.25061 3.1191,-137.57227 -5.9259,-40.3217 30.1496,-106.82435 36.9531,-112.10352 6.8036,-5.2792 8.787,-8.66232 20.9961,-5.12109 0,0 1.8652,5.70432 4.9727,-4.97266 0.5827,-2.00194 2.1648,-2.88647 4.4121,-2.91406 z"
       transform="scale(0.26458333)" />
    <path
       style="opacity:1;fill:#6ea91e;fill-opacity:1;stroke-width:0.0235578"
       d="m 333.24024,134.08887 c 0,-0.32645 0.11122,-0.52968 0.51608,-0.94079 0.22164,-0.22483 0.48888,-0.56729 0.66411,-0.84813 0.16082,-0.25924 0.45927,-0.72732 0.6633,-1.04057 0.34646,-0.53128 0.38567,-0.61769 0.5849,-1.29564 0.11762,-0.39927 0.27524,-0.98072 0.35045,-1.29165 0.072,-0.31125 0.27365,-0.97879 0.44167,-1.48415 0.34726,-1.04273 0.45608,-1.44992 0.5905,-2.19923 0.21283,-1.18611 0.21923,-1.97984 0.024,-2.92671 -0.16883,-0.81493 -0.30405,-1.17131 -0.9123,-2.38894 -0.70572,-1.41327 -0.77853,-1.62514 -0.74332,-2.16491 0.032,-0.47687 0.0928,-0.61369 0.32005,-0.70491 0.0976,-0.04 0.19203,-0.0936 0.20803,-0.12082 0.048,-0.072 0.37526,-0.056 0.6009,0.032 0.54728,0.21363 1.46391,1.01896 1.73579,1.5248 0.08,0.14322 0.27685,0.44247 0.44407,0.66571 0.23044,0.30725 0.35526,0.42967 0.51689,0.50488 0.44487,0.20883 0.6337,0.0896 0.70651,-0.44647 0.064,-0.44967 -0.04,-0.93415 -0.30245,-1.44135 -0.12962,-0.25124 -0.37286,-0.76652 -0.54089,-1.14434 -0.16802,-0.37847 -0.39046,-0.84574 -0.49527,-1.03913 -0.10482,-0.19363 -0.27285,-0.50568 -0.37446,-0.69291 -0.10162,-0.18803 -0.30325,-0.68091 -0.44887,-1.09546 -0.40647,-1.1549 -0.97736,-2.22131 -1.48296,-2.76988 -0.10482,-0.11441 -0.22324,-0.28404 -0.26244,-0.37846 -0.072,-0.18163 -0.0976,-0.59769 -0.032,-0.59769 0.048,0 0.14883,-0.21444 0.14883,-0.32405 0,-0.048 -0.0848,-0.36726 -0.18883,-0.71292 -0.14243,-0.47447 -0.18883,-0.70971 -0.18883,-0.95903 v -0.33045 l 0.29444,-0.27685 0.29445,-0.27684 0.28404,0.024 c 0.16563,0.016 0.37206,0.064 0.49448,0.12722 0.32165,0.16323 0.97376,0.64731 1.10722,0.82214 0.064,0.0856 0.28645,0.52408 0.49048,0.97431 0.41366,0.91175 0.60089,1.31021 0.6521,1.39086 0.17363,0.27525 0.88062,1.1069 1.20515,1.41831 0.34006,0.32645 0.42967,0.38886 0.55929,0.38806 0.18083,-8.8e-4 0.23844,-0.032 0.31205,-0.17283 0.12882,-0.24404 0.004,-0.86374 -0.34645,-1.74524 -0.11922,-0.29844 -0.22324,-0.6473 -0.23924,-0.801 -0.016,-0.14963 -0.08,-0.45208 -0.13602,-0.67291 -0.15043,-0.55769 -0.23204,-1.50048 -0.15923,-1.83829 0.032,-0.15763 0.056,-0.76252 0.064,-1.55401 0.008,-1.42343 0.008,-1.42679 0.35046,-2.14034 0.16642,-0.34966 0.33685,-0.51048 0.49768,-0.47048 0.072,0.016 0.12242,7.2e-4 0.15522,-0.056 0.048,-0.08 0.056,-0.0808 0.20643,-0.008 0.27765,0.13202 0.44328,0.30965 0.67531,0.72332 0.24804,0.44247 0.56889,0.77772 0.74412,0.77772 0.18643,0 0.6481,-0.26324 1.04185,-0.59529 0.39126,-0.32965 1.08153,-0.69371 1.58169,-0.8351 0.21923,-0.064 0.30245,-0.064 0.54168,-0.016 0.23364,0.048 0.28485,0.08 0.29765,0.16323 0.016,0.12482 0.006,0.12322 0.24484,0.024 0.42967,-0.17203 0.95855,0.056 1.36358,0.5977 0.19283,0.25604 0.51128,0.93247 0.57289,1.21547 0.08,0.35366 0.064,1.34942 -0.024,1.82781 -0.048,0.26164 -0.14483,0.54009 -0.30485,0.87166 -0.12962,0.26804 -0.34166,0.70971 -0.47208,0.98216 -0.21603,0.45127 -0.34245,0.6593 -0.83349,1.37358 -0.13602,0.19843 -0.16483,0.28084 -0.16483,0.48567 0,0.17923 0.024,0.26805 0.0864,0.32485 0.16882,0.15283 0.50648,0.072 0.87966,-0.20483 0.27284,-0.20323 1.07033,-0.6665 1.66538,-0.96671 0.33605,-0.16963 0.54489,-0.23444 1.1401,-0.35446 0.90887,-0.18323 1.59634,-0.22884 1.84718,-0.12402 0.0976,0.04 0.17682,0.0968 0.17682,0.12402 0,0.024 0.048,0.048 0.10002,0.048 0.12162,0 0.45287,0.34965 0.48808,0.51688 0.048,0.22724 -0.056,1.01048 -0.17123,1.27676 -0.44807,1.03833 -1.31741,2.12762 -2.26796,2.84086 -0.76252,0.57209 -1.3695,0.94079 -2.07529,1.26044 -0.50008,0.22643 -0.76172,0.38566 -1.35029,0.82029 -0.40167,0.29685 -0.86278,0.60729 -1.02473,0.68971 -0.16162,0.0824 -0.29444,0.16802 -0.29444,0.19043 0,0.064 0.22003,0.13202 0.40326,0.13202 0.0888,0 0.37846,-0.064 0.6449,-0.13522 0.54569,-0.15283 0.82397,-0.20243 1.89686,-0.33606 0.94807,-0.11841 1.57938,-0.12002 2.15035,-0.004 0.24243,0.048 0.57689,0.10322 0.74251,0.12082 0.70012,0.072 1.30533,0.50968 1.13963,0.81949 -0.064,0.12562 -0.064,0.14883 0.016,0.14883 0.11202,0 0.15362,0.13522 0.11602,0.37526 -0.056,0.33285 -0.19043,0.56569 -0.51288,0.86389 -0.33766,0.31285 -0.56569,0.45288 -1.09114,0.67131 -0.21283,0.088 -0.43127,0.20243 -0.48568,0.25364 -0.16882,0.15923 -0.98863,0.51368 -1.52152,0.65931 -0.27924,0.072 -0.6465,0.19123 -0.81589,0.25524 -0.16962,0.064 -0.6577,0.19363 -1.08361,0.28724 -0.93231,0.20484 -1.18475,0.27365 -1.64674,0.44807 -0.19443,0.072 -0.5977,0.18963 -0.89607,0.25844 -0.40166,0.0928 -0.70251,0.20164 -1.15434,0.41927 -1.45423,0.70011 -1.74772,0.91039 -2.18995,1.57161 -0.27604,0.41287 -0.30165,0.58169 -0.10801,0.70811 0.11281,0.072 0.25364,0.0832 1.21323,0.0832 1.01144,0 1.11026,0.008 1.44775,0.11202 0.44327,0.13762 0.71771,0.34245 0.67691,0.50568 -0.016,0.064 -0.004,0.14962 0.024,0.19683 0.17203,0.27604 -0.87198,1.26852 -1.57441,1.49712 -0.13442,0.04 -0.27764,0.10881 -0.31925,0.14402 -0.04,0.04 -0.32405,0.096 -0.6417,0.13522 -0.31205,0.04 -0.6385,0.10002 -0.72652,0.13602 -0.0872,0.04 -0.32485,0.0816 -0.52808,0.10002 -0.25924,0.024 -0.37686,0.056 -0.39527,0.10401 -0.016,0.04 -0.16082,0.12962 -0.32405,0.20324 -0.46647,0.20883 -1.09049,0.6385 -1.50232,1.03376 -0.20723,0.19923 -0.54648,0.47448 -0.75372,0.6121 -0.20723,0.13762 -0.50648,0.35125 -0.6649,0.47447 -0.15843,0.12322 -0.37686,0.26965 -0.48488,0.32486 -0.10802,0.056 -0.27524,0.17122 -0.37126,0.25764 -0.096,0.0864 -0.28244,0.21123 -0.41526,0.27844 -0.13203,0.064 -0.30165,0.17283 -0.37686,0.23524 -0.072,0.064 -0.20164,0.14722 -0.28165,0.18803 -0.08,0.04 -0.26004,0.19923 -0.40006,0.35125 -0.30485,0.33046 -1.53321,2.11658 -1.57761,2.29349 -0.016,0.072 -0.0896,0.15442 -0.16083,0.19123 -0.13042,0.064 -0.18883,0.22084 -0.18883,0.49608 0,0.13762 -0.072,0.18723 -0.26324,0.18723 -0.10402,0 -0.11442,-0.016 -0.11442,-0.21364 z"
       id="path841" />
  </g>
  <g
     inkscape:label="Layer 1"
     inkscape:groupmode="layer"
     id="layer1"
     transform="translate(-326.44918,-101.49808)" />
</svg>
